<svg xmlns="http://www.w3.org/2000/svg" viewBox="0 0 1000 350">
  <path d="M401.2 276.6V69c8.4 0 16.5-.1 24.6 0 12.1.2 24.4-.2 36.4.9 21.2 2 30.7 11.5 33.7 32.7 1.1 7.6 1.8 15.2 1.9 22.9.2 32 .2 64-.1 95.9-.1 7.3-1.2 14.6-2.7 21.7-4.1 19.1-14 29.4-33.2 31.3-20 2-40.2 1.6-60.6 2.2zm28.3-25c6.6 0 12.7.5 18.8-.1 10.2-1 15.2-5.6 17.4-15.6 1.2-5.5 2-11.2 2.1-16.8.2-31.7.3-63.3.1-95 0-5.4-.9-11-2-16.3-1.4-6.6-5.5-11.7-12.4-12.9-7.8-1.3-15.7-1.5-23.9-2.3-.1 53.6-.1 106-.1 159zM879.9 70c21 0 41.7-.6 62.3.2 15.5.6 24.1 8.5 25.3 23.8 1.3 17.7 1.1 35.6.3 53.3-.5 11.5-7.4 19.7-18.3 24.1-1.1.4-2.1 1-3.1 1.5-.1.1-.2.3-.4.7.8.2 1.5.3 2.2.5 13.7 3.3 20.3 10.8 20.8 24.9.5 13.5.1 27 .3 40.5.2 12 .6 23.9 1 36.5-8.2 0-16.9.1-25.7-.1-.9 0-2.3-1.4-2.5-2.4-.6-2.2-.9-4.6-.9-6.9-.1-19.3 0-38.7 0-58 0-1.7 0-3.3-.1-5-.9-11.9-5.5-16.4-17.3-16.8-5-.2-10 0-15.5 0v88.8h-28.2c-.2-68.6-.2-137.3-.2-205.6zm28.1 90.4c7.3-.3 14.3-.4 21.2-1 6.7-.6 11.2-5 11.5-11.3.6-14.6.5-29.2.1-43.8-.1-4.4-2.5-8.9-7.5-9.5-8.3-1-16.7-1.1-25.2-1.7-.1 22.9-.1 44.5-.1 67.3zM598.8 275.6V69.2h77.9v24.6h-49.9v64.6h46.1v24.5h-46v68.2h49.8v24.6c-25.8-.1-51.7-.1-77.9-.1zM864.8 183.1h-46v67.8h49.7v24.6h-77.9V69.2h78v24.5h-49.8v64.5h46v24.9zM509.4 69.1h77.7v24.7h-49.6v64.5h46.1v24.5h-46.1v68.1H587v24.7h-77.7c.1-68.6.1-137.3.1-206.5zM779 251.6v24.1h-91.2c1-10.1-1.7-20.2 2.4-30.3 19.9-48.5 39.5-97 59.2-145.6.7-1.8 1.4-3.7 2.4-6.2h-63.7V69.4H779c-.4 11.8 1 23.2-3.8 34.8-19.5 47.2-38.1 94.7-57 142.2-.6 1.5-1.1 3.1-1.8 5.3 21-.1 41.5-.1 62.6-.1zM376.6 106.2h-60.7V87.9h60.7v18.3zM177.7 203.1v-18.3h61.2v18.3h-61.2zM246.9 184.7h61v18.4h-61v-18.4zM376.8 184.8v18.4h-60.9v-18.4h60.9zM40.1 184.8h61.1v18.4H40.1v-18.4zM177.8 154.7v-18.5h61v18.5h-61zM376.8 136.4v18.4h-61v-18.4h61zM101.2 233.3v18.4H40.1v-18.4h61.1zM177.8 251.7v-18.5h61v18.5h-61zM246.8 251.7v-18.5h61v18.5h-61zM315.8 251.7v-18.5h60.8v18.5h-60.8zM238.9 130.6h-61v-18.5h61v18.5zM376.7 112v18.5h-60.9V112h60.9zM101.2 160.6v18.3H40.1v-18.3h61.1zM177.8 178.8v-18.4h61.1v18.4h-61.1zM308 160.6v18.2h-61.2v-18.2H308zM315.8 160.4h61v18.4h-61v-18.4zM101.2 209.2v18.4H40.3v-18.4h60.9zM238.9 209.2v18.3h-61.1v-18.3h61.1zM246.8 227.5v-18.3h60.9v18.3h-60.9zM315.9 209.1h60.8v18.5h-60.8v-18.5zM101.2 257.5v18.2h-61v-18.2h61zM238.8 275.8h-60.9v-18.4h60.9v18.4zM308 257.4v18.2h-61.1v-18.2H308zM376.9 257.4v18.3h-61v-18.3h61zM169.9 227.6h-60.6v-18.5h60.6v18.5zM170 233.3v18.4h-60.7v-18.4H170zM109.2 257.4h60.6v18.3h-60.6v-18.3z"/>
</svg>
