<svg xmlns="http://www.w3.org/2000/svg" viewBox="0 0 160.5592804 50"><path d="M62.877 19.87c0-1.497 1.322-2.432 3.377-2.432 2.494 0 4.492 1.195 5.65 2.089.36.25.488.245.679 0l1.98-2.797c.15-.187.227-.356-.082-.6-2.046-1.585-4.657-2.787-8.105-2.787-5.639 0-8.013 3.597-8.013 6.863 0 7.46 9.602 6.24 11.931 8.601.361.366.565.886.565 1.493 0 1.856-1.849 2.562-3.697 2.562-2.892 0-4.707-1.02-6.725-2.76-.206-.178-.38-.205-.56-.004l-2.246 2.65c-.158.181-.255.39.005.59 2.773 2.371 5.87 3.588 9.465 3.588 5.087 0 8.272-2.846 8.272-6.961 0-8.495-12.496-5.635-12.496-10.095zM86.696 18.809c-2.751 0-4.17 1.243-5.408 2.566v-1.847c0-.242-.098-.357-.347-.357h-3.669c-.376 0-.422.094-.422.423v21.768c0 .25.098.362.362.362h3.653c.281 0 .423-.089.423-.423V34.5c.946 1.216 2.824 2.462 5.391 2.462 4.029 0 8.174-2.993 8.174-9.057 0-6.448-4.51-9.095-8.157-9.095zm-.885 14.212c-2.742 0-4.614-2.433-4.614-5.115 0-2.664 1.751-5.153 4.614-5.153 2.276 0 4.536 1.79 4.536 5.183 0 3.038-1.984 5.085-4.536 5.085zM111.962 21.432a8.976 8.976 0 0 0-2.93-1.926c-1.132-.468-2.36-.702-3.683-.702-1.345 0-2.584.24-3.715.718a9.237 9.237 0 0 0-2.946 1.96 9.042 9.042 0 0 0-1.954 2.889 8.92 8.92 0 0 0-.704 3.543v.064a8.972 8.972 0 0 0 2.642 6.417 8.975 8.975 0 0 0 2.93 1.926c1.132.468 2.36.702 3.683.702 1.345 0 2.583-.24 3.715-.718a9.249 9.249 0 0 0 2.946-1.96 9.034 9.034 0 0 0 1.953-2.889c.47-1.1.705-2.28.705-3.542v-.066a8.973 8.973 0 0 0-2.642-6.416zm-6.624 11.638c-3.187 0-4.877-2.817-4.877-5.2 0-2.944 2.072-5.107 4.807-5.107 2.4 0 4.887 1.903 4.887 5.215 0 3.19-2.316 5.092-4.817 5.092zM125.681 19.17h-4.208v-4.196c0-.286-.104-.423-.423-.423h-3.683c-.297 0-.363.165-.363.362v4.257h-1.871c-.165 0-.242.088-.242.242v3.351c0 .18.067.302.302.302h1.811v8.695c0 3.265 1.686 5.141 5.134 5.141 1.576 0 2.562-.35 3.542-.84.16-.088.261-.192.261-.376v-3.02c0-.375-.25-.468-.595-.276-.36.164-1.09.485-2.06.485-1.51 0-1.813-.838-1.813-1.899v-7.91h4.166c.25 0 .363-.115.363-.362v-3.17c0-.266-.136-.363-.32-.363zM131.852 19.17h-3.737c-.264 0-.362.13-.362.363v16.696c0 .248.123.362.362.362h3.744c.236 0 .362-.078.362-.362V19.536c0-.208-.086-.366-.37-.366z"/><circle cx="130.014" cy="14.27" r="2.776"/><path d="M160.239 19.2h-3.925c-.235 0-.296.094-.404.388l-4.033 11.557-4.436-11.631c-.102-.27-.184-.344-.366-.344h-6.582v-.453c0-1.402.451-2.317 2-2.317.82 0 1.57.213 1.886.322.41.147.643.088.643-.239v-3.2c0-.186-.07-.279-.281-.343-.5-.12-1.83-.426-3.119-.426-4.175 0-5.476 2.62-5.476 5.841v.815h-1.812c-.24 0-.302.102-.302.308v3.285l.302.302h1.812v13.224c0 .188.093.302.302.302h3.804c.208 0 .302-.107.302-.302V23.065h3.623l5.514 13.257c-.447.931-.927 1.658-2.069 1.658-.883 0-1.671-.387-1.981-.543-.258-.125-.454-.164-.586.127l-1.141 2.51c-.156.294-.286.582.002.712 1.239.582 2.25 1.024 4.121 1.024 3.914 0 4.874-2.69 5.854-4.936l6.574-17.05c.15-.36.153-.623-.226-.623zM25 0C11.194 0 0 11.192 0 25s11.193 25 25 25 25.001-11.193 25.001-25-11.193-25-25-25zm10.143 36.797c-.405 0-.68-.14-1.058-.37-3.624-2.192-8.142-3.345-12.936-3.345-2.676 0-5.368.343-7.886.867-.41.09-.925.247-1.232.247a1.56 1.56 0 0 1-1.583-1.57c0-.104.008-.201.019-.295.178-.714.712-1.151 1.386-1.272 2.545-.553 5.676-1.082 9.324-1.082 5.735 0 10.683 1.422 14.686 3.863.506.307.72.68.825 1.152.006.076.01.156.01.241 0 .902-.733 1.564-1.555 1.564zm2.724-6.617c-.543 0-.884-.22-1.252-.434-4.067-2.413-9.704-4.016-15.876-4.016-3.165 0-5.898.443-8.16 1.045-.487.134-.76.279-1.216.279a1.958 1.958 0 0 1-1.953-1.96c0-.09.005-.178.013-.263.134-.78.642-1.407 1.589-1.665 2.819-.828 6.13-1.347 9.746-1.347 6.937 0 13.295 1.818 17.94 4.619.655.402.955.713 1.112 1.6.004.06.006.122.006.185a1.945 1.945 0 0 1-1.95 1.957zm3.102-7.696c-.51 0-.811-.124-1.288-.385-4.526-2.713-11.548-4.207-18.34-4.207-3.39 0-6.833.344-9.987 1.2-.363.092-.822.273-1.281.273-1.334 0-2.357-1.055-2.357-2.388 0-.06.003-.117.006-.175.162-1.04.821-1.775 1.715-2.032 3.567-1.036 7.392-1.544 11.911-1.544 7.518 0 15.07 1.574 20.595 4.765.829.451 1.207 1.021 1.366 1.805.011.11.018.225.018.346 0 1.363-1.096 2.342-2.358 2.342z"/></svg>